<?xml version="1.0" encoding="UTF-8" standalone="no"?>
<svg
   viewBox="0 0 512 128"
   height="128"
   width="512"
   xml:space="preserve"
   id="svg2"
   version="1.1"
   sodipodi:docname="logo.svg"
   inkscape:version="1.1.1 (c3084ef, 2021-09-22)"
   xmlns:inkscape="http://www.inkscape.org/namespaces/inkscape"
   xmlns:sodipodi="http://sodipodi.sourceforge.net/DTD/sodipodi-0.dtd"
   xmlns="http://www.w3.org/2000/svg"
   xmlns:svg="http://www.w3.org/2000/svg"
   xmlns:rdf="http://www.w3.org/1999/02/22-rdf-syntax-ns#"
   xmlns:cc="http://creativecommons.org/ns#"
   xmlns:dc="http://purl.org/dc/elements/1.1/"><sodipodi:namedview
     id="namedview862"
     pagecolor="#ffffff"
     bordercolor="#666666"
     borderopacity="1.0"
     inkscape:pageshadow="2"
     inkscape:pageopacity="0.0"
     inkscape:pagecheckerboard="true"
     showgrid="false"
     inkscape:zoom="1.5120941"
     inkscape:cx="179.88298"
     inkscape:cy="174.26164"
     inkscape:window-width="3355"
     inkscape:window-height="1387"
     inkscape:window-x="85"
     inkscape:window-y="25"
     inkscape:window-maximized="1"
     inkscape:current-layer="svg2" /><metadata
     id="metadata8"><rdf:RDF><cc:Work
         rdf:about=""><dc:format>image/svg+xml</dc:format><dc:type
           rdf:resource="http://purl.org/dc/dcmitype/StillImage" /></cc:Work></rdf:RDF></metadata><defs
     id="defs6"><clipPath
       id="clipPath20"
       clipPathUnits="userSpaceOnUse"><path
         id="path18"
         d="M 0,170.079 H 566.929 V 0 H 0 Z" /></clipPath></defs><path
     id="path24"
     style="fill:#1b6be0;fill-opacity:1;fill-rule:nonzero;stroke:none;stroke-width:0.977954"
     d="m 151.52455,60.836463 c 3.92942,0 6.22468,-2.34709 6.22468,-5.409064 v -0.101707 c 0,-3.520635 -2.4488,-5.409065 -6.37822,-5.409065 h -6.07212 V 60.836463 Z M 137.44103,42.824504 h 14.59303 c 8.5219,0 13.67474,5.051133 13.67474,12.347649 v 0.102685 c 0,8.265668 -6.4281,12.552041 -14.4395,12.552041 h -5.97041 v 10.715443 h -7.85786 z" /><path
     id="path28"
     style="fill:#1b6be0;fill-opacity:1;fill-rule:nonzero;stroke:none;stroke-width:0.977954"
     d="m 185.18661,62.724501 c -0.45964,-3.469781 -2.50063,-5.816871 -5.76602,-5.816871 -3.21453,0 -5.30638,2.296236 -5.91858,5.816871 z m -19.28819,2.296236 V 64.91903 c 0,-7.807008 5.56163,-14.237056 13.52217,-14.237056 9.13409,0 13.31778,7.093101 13.31778,14.848277 0,0.613178 -0.0508,1.327084 -0.10171,2.041969 h -19.03294 c 0.76476,3.520634 3.21454,5.357232 6.68432,5.357232 2.60233,0 4.49076,-0.815613 6.63346,-2.806728 l 4.43893,3.92942 c -2.55148,3.163681 -6.22467,5.102964 -11.1741,5.102964 -8.21579,0 -14.28791,-5.766995 -14.28791,-14.134371" /><path
     id="path32"
     style="fill:#1b6be0;fill-opacity:1;fill-rule:nonzero;stroke:none;stroke-width:0.977954"
     d="m 215.61927,65.020444 v -0.101707 c 0,-4.031127 -2.90844,-7.55274 -7.19481,-7.55274 -4.43893,0 -7.0931,3.418928 -7.0931,7.451033 v 0.101707 c 0,4.031127 2.90844,7.551761 7.19481,7.551761 4.43893,0 7.0931,-3.418927 7.0931,-7.450054 m -21.94138,0 v -0.101707 c 0,-7.85884 6.32736,-14.237056 14.84828,-14.237056 8.47006,0 14.74657,6.276509 14.74657,14.135349 v 0.101707 c 0,7.857861 -6.32736,14.236078 -14.84828,14.236078 -8.47006,0 -14.74657,-6.27651 -14.74657,-14.134371" /><path
     id="path36"
     style="fill:#1b6be0;fill-opacity:1;fill-rule:nonzero;stroke:none;stroke-width:0.977954"
     d="M 245.71092,64.918737 V 64.81703 c 0,-4.542597 -3.06197,-7.55274 -6.68432,-7.55274 -3.62234,0 -6.63346,3.010143 -6.63346,7.55274 v 0.101707 c 0,4.540641 3.01112,7.551762 6.63346,7.551762 3.62235,0 6.68432,-2.959289 6.68432,-7.551762 M 224.73967,51.193151 h 7.75518 v 3.928442 c 1.88843,-2.551483 4.49076,-4.439912 8.52189,-4.439912 6.37822,0 12.45033,5.001257 12.45033,14.135349 v 0.101707 c 0,9.133114 -5.97041,14.133393 -12.45033,14.133393 -4.13283,0 -6.68529,-1.887452 -8.52189,-4.081981 v 11.736428 h -7.75518 z" /><path
     id="path38"
     style="fill:#1b6be0;fill-opacity:1;fill-rule:nonzero;stroke:none;stroke-width:0.977954"
     d="m 255.39169,41.293908 h 7.75615 v 37.248317 h -7.75615 z" /><path
     id="path42"
     style="fill:#1b6be0;fill-opacity:1;fill-rule:nonzero;stroke:none;stroke-width:0.977954"
     d="m 284.14814,62.724501 c -0.45964,-3.469781 -2.50063,-5.816871 -5.76602,-5.816871 -3.21453,0 -5.30638,2.296236 -5.91858,5.816871 z m -19.28721,2.296236 V 64.91903 c 0,-7.807008 5.56162,-14.237056 13.52119,-14.237056 9.13312,0 13.31876,7.093101 13.31876,14.848277 0,0.613178 -0.0518,1.327084 -0.10269,2.041969 h -19.03294 c 0.76574,3.520634 3.21454,5.357232 6.68432,5.357232 2.60233,0 4.49076,-0.815613 6.63346,-2.806728 l 4.43893,3.92942 c -2.5505,3.163681 -6.22467,5.102964 -11.17312,5.102964 -8.21677,0 -14.28791,-5.766995 -14.28791,-14.134371" /><path
     id="path46"
     style="fill:#1b6be0;fill-opacity:1;fill-rule:nonzero;stroke:none;stroke-width:0.977954"
     d="m 294.10146,42.824504 h 8.47006 l 9.38836,15.103523 9.38836,-15.103523 h 8.47006 v 35.717818 h -7.80701 V 55.223984 l -10.05141,15.256085 h -0.20341 l -9.95069,-15.103524 v 23.165777 h -7.70432 z" /><path
     id="path50"
     style="fill:#1b6be0;fill-opacity:1;fill-rule:nonzero;stroke:none;stroke-width:0.977954"
     d="m 349.83722,68.898326 v -1.376959 c -1.32611,-0.613178 -3.06197,-1.020985 -4.9504,-1.020985 -3.31527,0 -5.35626,1.326106 -5.35626,3.775881 v 0.101708 c 0,2.091843 1.73391,3.316242 4.23454,3.316242 3.62332,0 6.07212,-1.989159 6.07212,-4.795887 m -17.80757,1.785744 v -0.101707 c 0,-5.969432 4.54162,-8.725307 11.02155,-8.725307 2.75489,0 4.74503,0.459639 6.68431,1.122692 v -0.459639 c 0,-3.214535 -1.99013,-5.000279 -5.86772,-5.000279 -2.96027,0 -5.05309,0.561345 -7.55176,1.479644 l -1.94026,-5.918578 c 3.01112,-1.327084 5.97041,-2.194529 10.61373,-2.194529 4.23454,0 7.2975,1.121713 9.2358,3.060996 2.04099,2.041969 2.96027,5.052111 2.96027,8.726285 v 15.868284 h -7.50091 v -2.95929 c -1.88843,2.092822 -4.49077,3.469782 -8.26665,3.469782 -5.15284,0 -9.38836,-2.95929 -9.38836,-8.368354" /><path
     id="path54"
     style="fill:#1b6be0;fill-opacity:1;fill-rule:nonzero;stroke:none;stroke-width:0.977954"
     d="m 359.90809,51.192955 h 7.75518 v 5.509794 c 1.58233,-3.775881 4.13283,-6.224678 8.72628,-6.020286 v 8.113107 h -0.40878 c -5.15382,0 -8.3175,3.112828 -8.3175,9.643606 V 78.54242 h -7.75518 z" /><path
     id="path58"
     style="fill:#1b6be0;fill-opacity:1;fill-rule:nonzero;stroke:none;stroke-width:0.977954"
     d="M 380.77646,70.786462 V 57.825636 h -3.26539 v -6.632485 h 3.26539 v -6.991394 h 7.75615 v 6.991394 h 6.42907 v 6.632485 h -6.42907 V 69.51121 c 0,1.785744 0.76574,2.653189 2.49965,2.653189 1.4288,0 2.70405,-0.357931 3.82674,-0.97013 v 6.225656 c -1.63221,0.969152 -3.51966,1.581352 -6.12199,1.581352 -4.74699,0 -7.96055,-1.887452 -7.96055,-8.214815" /><path
     id="path62"
     style="fill:#e9c739;fill-opacity:1;fill-rule:nonzero;stroke:none;stroke-width:0.977954"
     d="m 421.11706,71.450199 c 6.42809,0 10.76727,-4.338204 10.76727,-10.66459 v -0.101707 c 0,-6.327363 -4.33918,-10.767275 -10.76727,-10.767275 h -6.07212 V 71.450199 Z M 407.18708,42.824504 h 13.92998 c 11.22594,0 18.98111,7.704323 18.98111,17.756713 v 0.102685 c 0,10.051413 -7.75517,17.85842 -18.98111,17.85842 h -13.92998 z" /><path
     id="path66"
     style="fill:#e9c739;fill-opacity:1;fill-rule:nonzero;stroke:none;stroke-width:0.977954"
     d="m 460.97065,63.591653 -4.74699,-11.582889 -4.74405,11.582889 z m -8.26567,-21.022102 h 7.24469 l 15.30791,35.973065 h -8.21481 l -3.26539,-8.011401 h -15.1045 l -3.26539,8.011401 h -8.01042 z" /><path
     id="path70"
     style="fill:#e9c739;fill-opacity:1;fill-rule:nonzero;stroke:none;stroke-width:0.977954"
     d="m 502.34838,60.785316 v -0.101707 c 0,-6.122971 -4.48979,-11.225936 -10.81813,-11.225936 -6.32638,0 -10.71544,5.001258 -10.71544,11.124229 v 0.101707 c 0,6.122971 4.49076,11.224957 10.8191,11.224957 6.32639,0 10.71447,-5.000279 10.71447,-11.12325 m -29.74839,0 v -0.101707 c 0,-10.154098 8.0114,-18.471598 19.03392,-18.471598 11.01959,0 18.93026,8.215793 18.93026,18.369891 v 0.101707 c 0,10.154097 -8.0114,18.471597 -19.03392,18.471597 -11.02154,0 -18.93026,-8.215792 -18.93026,-18.36989" /><path
     id="path74"
     style="fill:#e9c739;fill-opacity:1;fill-rule:nonzero;stroke:none;stroke-width:0.977954"
     d="m 84.651656,75.056405 c -4.642348,-4.642348 -12.196066,-4.642348 -16.838414,0 L 52.921935,89.947712 c 4.713738,-2.738271 10.854312,-2.08891 14.891307,1.947107 4.642348,4.642348 12.196066,4.642348 16.838414,0 4.642348,-4.64137 4.642348,-12.196066 0,-16.838414 M 10.68703,114.7633 c -4.8105563,-4.80958 -4.8105563,-12.60876 0,-17.419321 L 50.393923,57.637086 c 14.247814,-14.246835 37.429238,-14.246835 51.677047,0 14.24684,14.247814 14.24684,37.429238 0,51.677054 -14.247809,14.24781 -37.429233,14.24781 -51.677047,0 -4.036016,-4.03602 -4.685378,-10.176593 -1.948084,-14.890332 L 28.106349,114.7633 c -4.810557,4.81055 -12.608763,4.81055 -17.419319,0" /><path
     id="path78"
     style="fill:#296bcc;fill-opacity:1;fill-rule:nonzero;stroke:none;stroke-width:0.977954"
     d="m 29.541007,52.943591 c 4.642348,4.642348 12.196066,4.642348 16.838414,0 L 61.26975,38.052284 c -4.71276,2.738271 -10.854312,2.08891 -14.890329,-1.947107 -4.642348,-4.642348 -12.196066,-4.642348 -16.838414,0 -4.642348,4.642348 -4.642348,12.196066 0,16.838414 M 103.50563,13.236698 c 4.80958,4.809578 4.80958,12.60974 0,17.419319 L 63.79874,70.36291 c -14.247814,14.246835 -37.429238,14.246835 -51.677052,0 -14.2478134,-14.247814 -14.2478134,-37.429238 0,-51.677052 14.247814,-14.2478134 37.429238,-14.2478134 51.677052,0 4.036016,4.036017 4.685378,10.176591 1.948084,14.89033 l 20.33949,-20.33949 c 4.810557,-4.8105565 12.608763,-4.8105565 17.419316,0" /></svg>
