<?xml version="1.0" encoding="UTF-8" standalone="no"?>
<svg
   id="图层_1"
   data-name="图层 1"
   viewBox="0 0 384.00001 128"
   version="1.1"
   sodipodi:docname="logo.svg"
   width="384"
   height="128"
   inkscape:version="1.1.1 (c3084ef, 2021-09-22)"
   xmlns:inkscape="http://www.inkscape.org/namespaces/inkscape"
   xmlns:sodipodi="http://sodipodi.sourceforge.net/DTD/sodipodi-0.dtd"
   xmlns="http://www.w3.org/2000/svg"
   xmlns:svg="http://www.w3.org/2000/svg">
  <sodipodi:namedview
     id="namedview861"
     pagecolor="#ffffff"
     bordercolor="#666666"
     borderopacity="1.0"
     inkscape:pageshadow="2"
     inkscape:pageopacity="0.0"
     inkscape:pagecheckerboard="true"
     showgrid="false"
     inkscape:zoom="2.2000231"
     inkscape:cx="221.81585"
     inkscape:cy="47.044961"
     inkscape:window-width="2737"
     inkscape:window-height="969"
     inkscape:window-x="256"
     inkscape:window-y="39"
     inkscape:window-maximized="0"
     inkscape:current-layer="图层_1" />
  <defs
     id="defs826">
    <style
       id="style824">.cls-1{fill:#fff;}.cls-2{fill:#14529c;}.cls-3{fill:#e8c62b;}</style>
  </defs>
  <path
     class="cls-2"
     d="m 135.18523,44.48 h 13.65 c 8,0 12.79,4.66 12.79,11.38 v 0.1 c 0,7.62 -6,11.57 -13.5,11.57 h -5.59 v 9.87 h -7.35 z m 13.17,16.6 c 3.68,0 5.83,-2.16 5.83,-5 v -0.1 c 0,-3.24 -2.29,-5 -6,-5 h -5.68 v 10.1 z"
     id="path830"
     style="fill:#ff00ff" />
  <path
     class="cls-2"
     d="m 161.77523,64.94 v -0.09 c 0,-7.2 5.2,-13.13 12.65,-13.13 8.54,0 12.45,6.54 12.45,13.69 0,0.56 0,1.22 -0.09,1.88 h -17.8 a 5.9,5.9 0 0 0 6.28,4.99 8.42,8.42 0 0 0 6.2,-2.59 l 4.16,3.59 a 12.88,12.88 0 0 1 -10.46,4.71 c -7.68,-0.02 -13.39,-5.34 -13.39,-13.05 z m 18,-2.12 c -0.43,-3.2 -2.34,-5.36 -5.39,-5.36 -3.05,0 -5,2.12 -5.54,5.36 z"
     id="path832"
     style="fill:#ff00ff" />
  <path
     class="cls-2"
     d="m 187.77523,64.94 v -0.09 c 0,-7.25 5.92,-13.13 13.89,-13.13 7.97,0 13.79,5.79 13.79,13 v 0.1 c 0,7.24 -5.91,13.12 -13.88,13.12 -7.97,0 -13.8,-5.76 -13.8,-13 z m 20.53,0 v -0.09 a 6.75,6.75 0 0 0 -6.73,-7 c -4.16,0 -6.64,3.16 -6.64,6.87 v 0.1 a 6.74,6.74 0 0 0 6.73,7 c 4.16,-0.01 6.65,-3.16 6.65,-6.88 z"
     id="path834"
     style="fill:#ff00ff" />
  <path
     class="cls-2"
     d="m 216.84523,52.19 h 7.25 v 3.63 a 9.42,9.42 0 0 1 8,-4.1 c 6,0 11.65,4.61 11.65,13 v 0.1 c 0,8.41 -5.59,13 -11.65,13 a 9.89,9.89 0 0 1 -8,-3.76 v 10.87 h -7.25 z m 19.61,12.66 v -0.1 c 0,-4.18 -2.86,-7 -6.25,-7 -3.39,0 -6.2,2.78 -6.2,7 v 0.1 c 0,4.18 2.81,7 6.2,7 3.39,0 6.25,-2.77 6.25,-7 z"
     id="path836"
     style="fill:#ff00ff" />
  <path
     class="cls-2"
     d="m 245.51523,43.07 h 7.26 V 77.4 h -7.25 z"
     id="path838"
     style="fill:#ff00ff" />
  <path
     class="cls-2"
     d="m 254.36523,64.94 v -0.09 c 0,-7.2 5.21,-13.13 12.65,-13.13 8.54,0 12.46,6.54 12.46,13.69 0,0.56 -0.05,1.22 -0.1,1.88 h -17.8 a 5.92,5.92 0 0 0 6.25,4.99 8.44,8.44 0 0 0 6.21,-2.59 l 4.15,3.59 a 12.86,12.86 0 0 1 -10.41,4.69 c -7.73,0 -13.41,-5.32 -13.41,-13.03 z m 18,-2.12 c -0.43,-3.2 -2.33,-5.36 -5.39,-5.36 -3.06,0 -5,2.12 -5.53,5.36 z"
     id="path840"
     style="fill:#ff00ff" />
  <path
     class="cls-2"
     d="m 281.71523,44.48 h 7.93 l 8.78,13.92 8.78,-13.92 h 7.92 V 77.4 h -7.3 V 55.91 l -9.4,14.06 h -0.19 l -9.31,-13.92 V 77.4 h -7.21 z"
     id="path842"
     style="fill:#e8c62b;fill-opacity:1" />
  <path
     class="cls-2"
     d="m 317.19523,70.16 v -0.09 c 0,-5.51 4.25,-8.05 10.31,-8.05 a 18.4,18.4 0 0 1 6.25,1 v -0.43 c 0,-3 -1.86,-4.6 -5.49,-4.6 a 19,19 0 0 0 -7.06,1.36 l -1.81,-5.46 a 22.85,22.85 0 0 1 9.92,-2 c 4,0 6.83,1 8.64,2.82 1.81,1.82 2.77,4.66 2.77,8 V 77.4 h -7 v -2.72 a 9.92,9.92 0 0 1 -7.73,3.19 c -4.84,0 -8.8,-2.72 -8.8,-7.71 z m 16.66,-1.65 v -1.23 a 11.48,11.48 0 0 0 -4.63,-0.94 c -3.1,0 -5,1.23 -5,3.48 v 0.1 c 0,1.93 1.62,3.06 4,3.06 3.34,-0.04 5.63,-1.88 5.63,-4.47 z"
     id="path844"
     style="fill:#e8c62b;fill-opacity:1" />
  <path
     class="cls-2"
     d="m 343.27523,52.19 h 7.25 v 5.09 c 1.48,-3.48 3.87,-5.74 8.16,-5.55 v 7.48 h -0.38 c -4.82,0 -7.78,2.87 -7.78,8.89 v 9.31 h -7.25 z"
     id="path846"
     style="fill:#e8c62b;fill-opacity:1" />
  <path
     class="cls-2"
     d="m 362.77523,70.28 v -12 h -3 v -6.09 h 3 v -6.44 h 7.25 v 6.44 h 6 v 6.09 h -6 v 10.8 c 0,1.64 0.72,2.44 2.34,2.44 a 7.39,7.39 0 0 0 3.58,-0.89 v 5.74 a 10.85,10.85 0 0 1 -5.73,1.46 c -4.44,0 -7.44,-1.74 -7.44,-7.55 z"
     id="path848"
     style="fill:#e8c62b;fill-opacity:1" />
  <path
     class="cls-2"
     d="m 16.625236,110.79 a 11.24,11.24 0 0 1 0,-16.06 l 37.15,-36.6 a 34.59,34.59 0 0 1 48.339994,0 33.39,33.39 0 0 1 0,47.64 34.59,34.59 0 0 1 -48.339994,0 11.25,11.25 0 0 1 -1.82,-13.73 l -19,18.75 a 11.63,11.63 0 0 1 -16.33,0 z m 69.15,-36.6 a 11.26,11.26 0 0 0 -15.75,0 l -13.89,13.73 a 11.63,11.63 0 0 1 13.92,1.79 11.26,11.26 0 0 0 15.75,0 10.86,10.86 0 0 0 -0.03,-15.52 z"
     id="path856"
     style="fill:#ff00ff" />
  <path
     class="cls-3"
     d="m 103.44523,17.21 a 11.23,11.23 0 0 1 0,16 L 66.305236,69.86 a 34.57,34.57 0 0 1 -48.34,0 33.38,33.38 0 0 1 0,-47.63 34.59,34.59 0 0 1 48.34,0 11.22,11.22 0 0 1 1.82,13.72 l 19,-18.74 a 11.63,11.63 0 0 1 16.319994,0 z m -69.179994,36.6 a 11.26,11.26 0 0 0 15.75,0 l 13.92,-13.73 a 11.65,11.65 0 0 1 -13.92,-1.8 11.26,11.26 0 0 0 -15.75,0 10.86,10.86 0 0 0 0,15.53 z"
     id="path858" />
</svg>
